<svg enable-background="new 0 0 353.209 182.186" version="1.1" xmlns="http://www.w3.org/2000/svg" width="348.52325" height="182.93701"><rect id="backgroundrect" width="100%" height="100%" x="0" y="0" fill="none" stroke="none"/>
 
 
 
 
 
 
 
 
 
<g class="currentLayer" style=""><title>Layer 1</title><path d="m332.15 83.348c6.3241 8.2256 10.82 15.978 15.376 23.736-53.998-1.0961-92.526 4.7831-110.52 14.859-13.285 11.763-34.343 13.624-50.994 12.999-38.862 7.6582-81.578 30.094-114.99 46.994-24.443-36.424-49.299-77.799-69.991-111.99-0.42812-1.881 4.2548-5.2593 5.9884-5.3847l-0.4884 2.8847c25.526 38.356 43.203 68.798 68.492 105.49 32.294-15.822 70.38-41.351 116.81-46.739 6.7854-10.786 28.906-11.289 33.381-8.4305 36.984-23.1 80.788-16.728 110.77-17.821-3.6562-10.902-3.9153-15.517-4.557-26.724" fill="none" stroke="#ff6c0c" stroke-width="2" id="svg_1" class="" opacity="0.48" stroke-opacity="1"/><path d="m6.5275 67.452c0.844-4.938 2.248-15.268 7.395-17.6" fill="none" stroke="#ff6c0c" stroke-linecap="round" stroke-width="2" id="svg_2" class="" stroke-opacity="1" opacity="0.38"/><path d="m13.923 49.854c31.278-20.756 75.054-53.726 111.45-23.112" fill="none" stroke="#ff6c0c" stroke-linecap="round" stroke-width="2" id="svg_3" class="" opacity="0.3" stroke-opacity="1"/><path d="m125.37 26.742c21.53-35.956 68.59-18.112 102.97-25.742 33.81 23.763 70.05 47.677 103.09 72.227" fill="none" stroke="#ff6c0c" stroke-linecap="round" stroke-width="2" id="svg_4" class="" opacity="0.36" stroke-opacity="1"/><path d="m208.02 116.35c6.7024-33.432 83.107-36.161 123.41-43.122" fill="none" stroke="#ff6c0c" stroke-linecap="round" stroke-width="2" id="svg_5" class="" opacity="0.35" stroke-opacity="1"/><path d="m125.37000274658203,26.079748928546906 c26.05299949645996,23.891000747680664 56.47800064086914,65.90899658203125 82.64700317382812,89.60700225830078 " fill="none" stroke="#ff6c0c" stroke-linecap="round" stroke-width="2" id="svg_6" class="" opacity="0.35" stroke-opacity="1"/><path d="m13.923 49.854c22.017 30.93 40.332 64.812 62.092 96.088" fill="none" stroke="#ff6c0c" stroke-linecap="round" stroke-width="2" id="svg_7" class="" opacity="0.38" stroke-opacity="1"/><path d="m76.016 145.94c39.787-18.125 89.682-54.161 132-29.593" fill="none" stroke="#ff6c0c" stroke-linecap="round" stroke-width="2" id="svg_8" class="" opacity="0.38" stroke-opacity="1"/><path d="m76.016 145.94c-0.556 5.836-0.093 21.195-0.996 27" fill="none" stroke="#ff6c0c" stroke-linecap="round" stroke-width="2" id="svg_9" class="" stroke-opacity="1" opacity="0.36"/></g></svg>